<?xml version="1.0" encoding="UTF-8" standalone="no"?>
<svg width="135px" height="104px" viewBox="0 0 135 104" version="1.1" xmlns="http://www.w3.org/2000/svg" xmlns:xlink="http://www.w3.org/1999/xlink">
    <!-- Generator: Sketch 3.7.2 (28276) - http://www.bohemiancoding.com/sketch -->
    <title>tacothetown</title>
    <desc>Created with Sketch.</desc>
    <defs>
        <filter x="-50%" y="-50%" width="200%" height="200%" filterUnits="objectBoundingBox" id="filter-1">
            <feOffset dx="0" dy="2" in="SourceAlpha" result="shadowOffsetOuter1"></feOffset>
            <feGaussianBlur stdDeviation="1.5" in="shadowOffsetOuter1" result="shadowBlurOuter1"></feGaussianBlur>
            <feColorMatrix values="0 0 0 0 0   0 0 0 0 0   0 0 0 0 0  0 0 0 0.5 0" type="matrix" in="shadowBlurOuter1" result="shadowMatrixOuter1"></feColorMatrix>
            <feMerge>
                <feMergeNode in="shadowMatrixOuter1"></feMergeNode>
                <feMergeNode in="SourceGraphic"></feMergeNode>
            </feMerge>
        </filter>
        <rect id="path-2" x="0" y="0" width="129" height="74" rx="8"></rect>
    </defs>
    <g id="Page-1" stroke="none" stroke-width="1" fill="none" fill-rule="evenodd">
        <g id="Beef" transform="translate(108.500000, 36.500000) rotate(-59.000000) translate(-108.500000, -36.500000) translate(95.000000, 23.000000)" fill="#8B572A">
            <circle id="Oval-3" cx="10.5" cy="10.5" r="5.5"></circle>
            <circle id="Oval-3" cx="5.5" cy="16.5" r="5.5"></circle>
            <circle id="Oval-3" cx="10.5" cy="16.5" r="5.5"></circle>
            <circle id="Oval-3" cx="16.5" cy="11.5" r="5.5"></circle>
            <circle id="Oval-3" cx="16.5" cy="21.5" r="5.5"></circle>
            <circle id="Oval-3" cx="21.5" cy="16.5" r="5.5"></circle>
            <circle id="Oval-3" cx="21.5" cy="16.5" r="5.5"></circle>
            <circle id="Oval-3" cx="10.5" cy="5.5" r="5.5"></circle>
        </g>
        <g id="Beef" transform="translate(75.500000, 22.500000) rotate(-59.000000) translate(-75.500000, -22.500000) translate(62.000000, 9.000000)" fill="#8B572A">
            <circle id="Oval-3" cx="10.5" cy="10.5" r="5.5"></circle>
            <circle id="Oval-3" cx="5.5" cy="16.5" r="5.5"></circle>
            <circle id="Oval-3" cx="10.5" cy="16.5" r="5.5"></circle>
            <circle id="Oval-3" cx="16.5" cy="11.5" r="5.5"></circle>
            <circle id="Oval-3" cx="16.5" cy="21.5" r="5.5"></circle>
            <circle id="Oval-3" cx="21.5" cy="16.5" r="5.5"></circle>
            <circle id="Oval-3" cx="21.5" cy="16.5" r="5.5"></circle>
            <circle id="Oval-3" cx="10.5" cy="5.5" r="5.5"></circle>
        </g>
        <g id="Beef" transform="translate(55.500000, 19.500000) rotate(-59.000000) translate(-55.500000, -19.500000) translate(42.000000, 6.000000)" fill="#8B572A">
            <circle id="Oval-3" cx="10.5" cy="10.5" r="5.5"></circle>
            <circle id="Oval-3" cx="5.5" cy="16.5" r="5.5"></circle>
            <circle id="Oval-3" cx="10.5" cy="16.5" r="5.5"></circle>
            <circle id="Oval-3" cx="16.5" cy="11.5" r="5.5"></circle>
            <circle id="Oval-3" cx="16.5" cy="21.5" r="5.5"></circle>
            <circle id="Oval-3" cx="21.5" cy="16.5" r="5.5"></circle>
            <circle id="Oval-3" cx="21.5" cy="16.5" r="5.5"></circle>
            <circle id="Oval-3" cx="10.5" cy="5.5" r="5.5"></circle>
        </g>
        <g id="Beef" transform="translate(9.000000, 25.000000)" fill="#8B572A">
            <circle id="Oval-3" cx="10.5" cy="10.5" r="5.5"></circle>
            <circle id="Oval-3" cx="5.5" cy="16.5" r="5.5"></circle>
            <circle id="Oval-3" cx="10.5" cy="16.5" r="5.5"></circle>
            <circle id="Oval-3" cx="16.5" cy="11.5" r="5.5"></circle>
            <circle id="Oval-3" cx="16.5" cy="21.5" r="5.5"></circle>
            <circle id="Oval-3" cx="21.5" cy="16.5" r="5.5"></circle>
            <circle id="Oval-3" cx="21.5" cy="16.5" r="5.5"></circle>
            <circle id="Oval-3" cx="10.5" cy="5.5" r="5.5"></circle>
        </g>
        <g id="Lettuce" transform="translate(17.000000, 12.000000)" fill="#79C62A">
            <polygon id="Star-1" points="11 18.75 5.70993273 21.9946784 6.72024568 15.1223392 2.44049135 10.2553216 8.35496636 9.25266078 11 3 13.6450336 9.25266078 19.5595086 10.2553216 15.2797543 15.1223392 16.2900673 21.9946784"></polygon>
            <polygon id="Star-1" points="11 23.75 5.70993273 26.9946784 6.72024568 20.1223392 2.44049135 15.2553216 8.35496636 14.2526608 11 8 13.6450336 14.2526608 19.5595086 15.2553216 15.2797543 20.1223392 16.2900673 26.9946784"></polygon>
            <polygon id="Star-1" transform="translate(14.021654, 14.649782) rotate(-36.000000) translate(-14.021654, -14.649782) " points="14.021654 19.899782 8.7315867 23.1444604 9.74189965 16.2721212 5.46214533 11.4051035 11.3766203 10.4024427 14.021654 4.14978196 16.6666876 10.4024427 22.5811626 11.4051035 18.3014083 16.2721212 19.3117212 23.1444604"></polygon>
        </g>
        <g id="Lettuce" transform="translate(28.000000, 11.000000)" fill="#79C62A">
            <polygon id="Star-1" points="11 18.75 5.70993273 21.9946784 6.72024568 15.1223392 2.44049135 10.2553216 8.35496636 9.25266078 11 3 13.6450336 9.25266078 19.5595086 10.2553216 15.2797543 15.1223392 16.2900673 21.9946784"></polygon>
            <polygon id="Star-1" points="11 23.75 5.70993273 26.9946784 6.72024568 20.1223392 2.44049135 15.2553216 8.35496636 14.2526608 11 8 13.6450336 14.2526608 19.5595086 15.2553216 15.2797543 20.1223392 16.2900673 26.9946784"></polygon>
            <polygon id="Star-1" transform="translate(14.021654, 14.649782) rotate(-36.000000) translate(-14.021654, -14.649782) " points="14.021654 19.899782 8.7315867 23.1444604 9.74189965 16.2721212 5.46214533 11.4051035 11.3766203 10.4024427 14.021654 4.14978196 16.6666876 10.4024427 22.5811626 11.4051035 18.3014083 16.2721212 19.3117212 23.1444604"></polygon>
        </g>
        <g id="Lettuce" transform="translate(75.000000, 11.000000)" fill="#79C62A">
            <polygon id="Star-1" points="11 18.75 5.70993273 21.9946784 6.72024568 15.1223392 2.44049135 10.2553216 8.35496636 9.25266078 11 3 13.6450336 9.25266078 19.5595086 10.2553216 15.2797543 15.1223392 16.2900673 21.9946784"></polygon>
            <polygon id="Star-1" points="11 23.75 5.70993273 26.9946784 6.72024568 20.1223392 2.44049135 15.2553216 8.35496636 14.2526608 11 8 13.6450336 14.2526608 19.5595086 15.2553216 15.2797543 20.1223392 16.2900673 26.9946784"></polygon>
            <polygon id="Star-1" transform="translate(14.021654, 14.649782) rotate(-36.000000) translate(-14.021654, -14.649782) " points="14.021654 19.899782 8.7315867 23.1444604 9.74189965 16.2721212 5.46214533 11.4051035 11.3766203 10.4024427 14.021654 4.14978196 16.6666876 10.4024427 22.5811626 11.4051035 18.3014083 16.2721212 19.3117212 23.1444604"></polygon>
        </g>
        <g id="Lettuce" transform="translate(88.000000, 14.000000)" fill="#79C62A">
            <polygon id="Star-1" points="11 18.75 5.70993273 21.9946784 6.72024568 15.1223392 2.44049135 10.2553216 8.35496636 9.25266078 11 3 13.6450336 9.25266078 19.5595086 10.2553216 15.2797543 15.1223392 16.2900673 21.9946784"></polygon>
            <polygon id="Star-1" points="11 23.75 5.70993273 26.9946784 6.72024568 20.1223392 2.44049135 15.2553216 8.35496636 14.2526608 11 8 13.6450336 14.2526608 19.5595086 15.2553216 15.2797543 20.1223392 16.2900673 26.9946784"></polygon>
            <polygon id="Star-1" transform="translate(14.021654, 14.649782) rotate(-36.000000) translate(-14.021654, -14.649782) " points="14.021654 19.899782 8.7315867 23.1444604 9.74189965 16.2721212 5.46214533 11.4051035 11.3766203 10.4024427 14.021654 4.14978196 16.6666876 10.4024427 22.5811626 11.4051035 18.3014083 16.2721212 19.3117212 23.1444604"></polygon>
        </g>
        <g id="Oval-1" filter="url(#filter-1)" transform="translate(3.000000, 8.000000)">
            <mask id="mask-3" fill="white">
                <use xlink:href="#path-2"></use>
            </mask>
            <g id="Mask"></g>
            <ellipse fill="#FFC107" mask="url(#mask-3)" cx="64.5" cy="65.1704545" rx="64.5" ry="54.2386364"></ellipse>
        </g>
        <g id="Wheel" transform="translate(13.000000, 61.000000)">
            <ellipse id="Oval-36" fill="#9B9B9B" cx="21.9270833" cy="21.9270833" rx="16.65625" ry="16.65625"></ellipse>
            <path d="M7.64648437,7.64648438 C6.02156587,9.27140288 10.609375,4.84375003 6.765625,7.24609375 C5.93087375,7.76781328 5.41826875,8.68895082 4.84375,9.48828125 C4.77951685,9.57764911 4.84157061,9.73547595 4.92382812,9.80859375 C5.10226974,9.96720852 5.45768229,9.91536458 5.56445312,10.1289063 C5.64453125,10.2890625 5.484375,10.6894531 5.32421875,10.609375 L5.1640625,10.6894531 C4.20203021,10.208437 4.56742955,9.71339244 3.80273437,11.0898438 C3.69197739,11.2892063 3.67325699,11.5311062 3.5625,11.7304688 C3.53351357,11.7826443 3.42903646,11.7571615 3.40234375,11.8105469 C3.18287839,12.2494776 2.77239583,12.6860677 2.84179687,13.171875 C3.09693483,14.9578407 3.90017386,12.76812 3.48242187,13.8125 C3.45268161,13.8868507 3.54648437,14.0046875 3.48242187,14.0527344 C3.39700521,14.1167969 3.26340108,14.0864983 3.16210937,14.0527344 C2.93561423,13.977236 2.75877098,13.7060567 2.52148437,13.7324219 C2.3862102,13.7474523 2.49502128,14.0077108 2.44140625,14.1328125 C2.41166598,14.2022065 2.30454161,14.221153 2.28125,14.2929688 C1.98149781,15.2172047 1.50744804,16.1244485 1.48046875,17.0957031 C1.43645397,18.680235 2.34262562,16.4469118 2.44140625,17.3359375 C2.60289887,18.7893711 1.51648132,17.0905816 1.3203125,17.8164063 C1.06805234,18.7497688 1.09166627,19.7367229 1,20.6992188 C0.984815731,20.8586536 0.856751895,21.1080634 1,21.1796875 C1.28649621,21.3229356 1.69442139,21.0020101 1.9609375,21.1796875 C3.80843861,22.4113549 0.874653906,21.0786568 1,22.3007813 C1.0905309,23.1834575 1,24.1158854 1.3203125,24.9433594 C1.39977225,25.1486304 1.82002414,24.6141071 1.9609375,24.7832031 L2.28125,24.8632813 C3.12605346,25.8770454 1.14813496,24.6550399 1.56054687,26.3046875 C1.7633164,27.1157656 2.00947026,27.9163993 2.28125,28.7070313 C2.48245043,29.2923416 3.01887276,28.1929167 3.32226562,28.546875 C4.20416194,29.575754 2.34978756,28.9762876 2.6015625,29.5078125 C3.06670419,30.4897783 3.56773256,31.4566873 4.12304687,32.390625 C4.40290334,32.8612927 4.75490342,31.536652 5.32421875,32.390625 C5.58174153,32.7769092 4.49521653,32.7322813 4.60351562,33.1113281 C4.71910893,33.5159047 5.85227455,34.7723744 6.125,35.1132813 C6.31365386,35.3490986 6.46363148,35.7539063 6.765625,35.7539063 C7.08704777,35.7539063 7.16813581,35.1587373 7.48632812,35.1132813 C7.69270955,35.0837982 7.93040069,35.389901 7.88671875,35.59375 C7.82344232,35.88904 7.0860375,35.978285 7.24609375,36.234375 C7.76781328,37.0691263 8.70990988,37.5536399 9.48828125,38.15625 C9.9821515,38.5386012 9.77298633,37.0783608 10.609375,37.6757813 C10.8271341,37.8313235 10.2353481,38.4521727 10.2089844,38.6367188 C10.2088594,38.6375932 11.5723088,39.4716476 11.6503906,39.5175781 C12.0619588,39.759677 12.4882989,39.9808664 12.9316406,40.1582031 C13.0307749,40.1978568 13.1907241,40.2456732 13.2519531,40.1582031 C13.3011379,40.0879391 13.2530445,39.2076847 13.6523437,39.3574219 C13.820003,39.4202941 14.120055,39.4190512 14.1328125,39.5976563 C14.2561379,41.3242115 11.6319263,39.9294132 15.734375,41.1992188 C16.1796988,41.3370571 16.6582775,41.6806881 17.0957031,41.5195313 C17.3757362,41.4163612 17.0803292,40.8800259 17.2558594,40.6386719 C17.3500587,40.5091477 17.7363281,40.4785156 17.7363281,40.6386719 L17.8964844,40.71875 C17.8964844,40.9130758 17.752466,41.0856423 17.7363281,41.2792969 C17.7250251,41.4149334 17.6831863,41.6518043 17.8164062,41.6796875 C18.9186876,41.9103975 20.0734106,42.2107194 21.1796875,42 C21.4943428,41.9400657 21.0020101,40.7725464 21.1796875,41.0390625 L21.8203125,41.0390625 C21.9979899,41.3055786 21.6770644,41.7135038 21.8203125,42 C21.8919366,42.1432481 22.1414608,42.0163406 22.3007812,42 C23.1834575,41.9094691 24.144642,42.0661636 24.9433594,41.6796875 C25.2119971,41.5497015 24.6497396,41.0657552 24.7832031,40.7988281 C25.2883554,39.7885236 25.6033243,41.6140709 25.6640625,41.5996094 C26.7484693,41.3414173 27.8927467,41.1800279 28.8671875,40.6386719 C28.9772182,40.5775437 28.3905218,40.0184012 28.546875,39.7578125 C28.5788751,39.704479 29.0365835,39.4290302 29.1074219,39.5175781 C29.3025954,39.7615451 29.1155351,40.3864298 29.4277344,40.3984375 C30.0723162,40.4232291 30.6175541,39.8960384 31.1894531,39.5976563 C31.3668964,39.5050771 32.3356076,38.9512699 32.4707031,38.796875 C32.7368961,38.4926545 31.7703402,38.215988 32.0703125,37.9160156 C32.9391495,37.0471787 32.5765815,38.6256615 33.1113281,38.3964844 C33.2816239,38.3235005 35.5131026,36.412959 35.6738281,36.234375 C35.7095411,36.1946939 35.7089827,36.1143954 35.6738281,36.0742188 C35.5117737,35.8890137 34.86966,35.558947 35.1132812,35.59375 L35.5136719,35.1132813 C35.8318642,35.1587373 35.9242779,35.8384782 36.234375,35.7539063 C36.4877998,35.6847904 37.9347046,33.8378072 38.15625,33.4316406 C38.4201904,32.9477499 36.6608359,32.9949366 37.7558594,32.3105469 C38.012932,32.1498765 38.4650526,33.0329088 38.6367187,32.7910156 C39.2039058,31.9917974 40.771108,30.9214986 40.078125,30.2285156 L40.1582031,29.828125 C39.8276145,29.4975363 38.8983594,29.7497656 39.5175781,29.0273438 C41.2139826,27.0482052 37.2567412,32.8920744 40.4785156,29.2675781 C40.5854402,29.147288 41.6032058,26.2111034 41.5195312,25.9042969 C40.9436364,23.7926823 40.4435636,26.9046158 40.6386719,25.34375 C40.7261986,24.643536 41.5772831,25.672859 41.6796875,25.1835938 C41.9103975,24.0813124 42.1851406,22.9311564 42,21.8203125 C41.9517292,21.5306877 40.8816797,21.9930114 41.1191406,21.8203125 L41.0390625,21.1796875 C41.2981108,20.9912888 41.7135038,21.3229356 42,21.1796875 C42.1432481,21.1080634 42.0163406,20.8585392 42,20.6992188 C41.9094691,19.8165425 42,18.8841146 41.6796875,18.0566406 C41.5852321,17.8126309 40.7833078,18.5731033 40.71875,18.0566406 C40.5931565,17.0518929 40.769755,18.0209371 41.5195312,17.4960938 C41.6507364,17.4042502 41.5583748,17.1709994 41.5195312,17.015625 C41.2900945,16.097878 41.0700826,15.1713003 40.71875,14.2929688 C40.5444382,13.8571892 39.840901,14.9841691 39.5976562,14.1328125 C39.4436493,13.5937883 40.5450943,13.8496633 40.3984375,13.4921875 C39.9860266,12.4869359 39.4322674,11.5433127 38.8769531,10.609375 C38.6129351,10.1653447 38.2557341,11.3559527 37.7558594,10.6894531 C37.4001721,10.2152034 38.1933635,10.2011688 38.3964844,10.0488281 C38.436936,10.0184894 37.7241367,8.92812008 37.5957031,8.76757813 C37.5123291,8.66336061 37.3587646,8.63156127 37.2753906,8.52734375 C37.242041,8.48565674 37.3101334,8.40772073 37.2753906,8.3671875 C37.1397158,8.20890018 36.9305967,8.1250842 36.7949219,7.96679688 C36.7601791,7.92626364 36.8303892,7.84654138 36.7949219,7.80664063 C36.6064104,7.59456519 36.4374917,7.22839407 36.1542969,7.24609375 C35.8528915,7.26493159 35.4503954,8.18200874 35.5136719,7.88671875 L35.1132812,7.40625 C35.1765577,7.11096001 35.8454718,7.05340241 35.7539062,6.765625 C35.6200376,6.34489492 33.9385254,5.1816732 33.4316406,4.84375 C33.1708717,4.66990403 32.7642554,6.26498475 32.3105469,5.24414063 C32.2267327,5.05555864 32.9582068,4.5304724 32.7910156,4.36328125 C32.5155867,4.08785233 30.2956377,2.937493 30.0683594,2.84179688 C29.4873826,2.59717508 29.8496463,3.8577167 29.3476562,3.64257813 C27.5829082,2.88625752 31.0950244,4.26190938 29.2675781,2.52148438 C28.7539884,2.03235135 27.9416971,2.01514556 27.265625,1.80078125 C26.8459867,1.66772521 26.3974594,1.32827977 25.984375,1.48046875 C25.9542751,1.49155819 25.8575076,3.16090734 25.1035156,2.28125 C24.9936493,2.15307267 25.2496522,1.96901762 25.2636719,1.80078125 C25.3904025,0.280013182 22.626666,0.846408856 21.8203125,1 C21.5056572,1.05993435 21.9979899,1.69442139 21.8203125,1.9609375 C21.7018609,2.13861491 21.2981391,2.13861491 21.1796875,1.9609375 C21.0020101,1.69442139 21.4835626,1.10129171 21.1796875,1 C20.4183134,0.746208626 19.5757143,1.07827209 18.7773437,1.16015625 C18.5325334,1.185265 18.2077281,1.12605717 18.0566406,1.3203125 C17.9406576,1.46943351 18.4745055,2.07013331 18.1367187,2.28125 C17.0402579,2.96653804 18.0043159,1.21658656 17.3359375,1.40039063 C16.3177697,1.68038678 15.2785497,1.9021804 14.2929687,2.28125 C13.7446849,2.4921284 15.0892921,3.18324337 14.2128906,3.40234375 C13.4676215,3.58866102 14.302374,2.99980341 13.5722656,2.6015625 C13.5083096,2.5666774 13.1861649,2.70784637 12.7714844,2.921875 C12.0065473,3.31668124 11.2533951,3.73763331 10.5292969,4.203125 C10.4843902,4.23199357 10.499684,4.3188619 10.5292969,4.36328125 C10.7214666,4.65153576 11.283516,4.85412922 10.8496094,5.1640625 C10.0662132,5.7236312 10.3440435,4.2847555 9.88867187,4.60351563 C9.50609676,4.8713182 7.3046402,6.56071241 7.24609375,6.765625 C7.16312975,7.055999 7.68309377,7.18323217 7.88671875,7.40625 L7.64648437,7.64648438 C9.32639046,9.48638151 10.8954857,11.4958903 12.9316406,12.9316406 C13.0520611,13.0165525 14.0127257,11.9546632 14.2929687,11.7304688 C14.3346558,11.6971191 14.4087056,11.7600817 14.453125,11.7304688 C14.6578881,11.59396 14.8000019,11.3720971 15.0136719,11.25 C15.739188,10.8354194 16.4713212,10.4165702 17.2558594,10.1289063 C18.0824976,9.82580558 18.9462249,9.60903833 19.8183594,9.48828125 C27.6834269,8.3992719 34.6104075,15.2466663 33.5117187,23.1816406 C33.127074,25.9596307 31.7990499,28.2476285 29.9082031,30.2285156 C29.2957988,30.870082 28.4296429,31.352811 27.6660156,31.8300781 C18.7522883,37.4011577 7.23488708,29.030529 9.6484375,18.9375 C10.2212084,16.5422763 11.3553701,14.6512084 12.9316406,12.9316406" id="Shape" fill="#000000"></path>
            <path d="M8.5,8.5 L12.5,12.5" id="Line" stroke="#000000" stroke-linecap="square"></path>
        </g>
        <g id="Wheel" transform="translate(74.000000, 60.000000)">
            <ellipse id="Oval-36" fill="#9B9B9B" cx="21.9270833" cy="21.9270833" rx="16.65625" ry="16.65625"></ellipse>
            <path d="M7.64648437,7.64648438 C6.02156587,9.27140288 10.609375,4.84375003 6.765625,7.24609375 C5.93087375,7.76781328 5.41826875,8.68895082 4.84375,9.48828125 C4.77951685,9.57764911 4.84157061,9.73547595 4.92382812,9.80859375 C5.10226974,9.96720852 5.45768229,9.91536458 5.56445312,10.1289063 C5.64453125,10.2890625 5.484375,10.6894531 5.32421875,10.609375 L5.1640625,10.6894531 C4.20203021,10.208437 4.56742955,9.71339244 3.80273437,11.0898438 C3.69197739,11.2892063 3.67325699,11.5311062 3.5625,11.7304688 C3.53351357,11.7826443 3.42903646,11.7571615 3.40234375,11.8105469 C3.18287839,12.2494776 2.77239583,12.6860677 2.84179687,13.171875 C3.09693483,14.9578407 3.90017386,12.76812 3.48242187,13.8125 C3.45268161,13.8868507 3.54648437,14.0046875 3.48242187,14.0527344 C3.39700521,14.1167969 3.26340108,14.0864983 3.16210937,14.0527344 C2.93561423,13.977236 2.75877098,13.7060567 2.52148437,13.7324219 C2.3862102,13.7474523 2.49502128,14.0077108 2.44140625,14.1328125 C2.41166598,14.2022065 2.30454161,14.221153 2.28125,14.2929688 C1.98149781,15.2172047 1.50744804,16.1244485 1.48046875,17.0957031 C1.43645397,18.680235 2.34262562,16.4469118 2.44140625,17.3359375 C2.60289887,18.7893711 1.51648132,17.0905816 1.3203125,17.8164063 C1.06805234,18.7497688 1.09166627,19.7367229 1,20.6992188 C0.984815731,20.8586536 0.856751895,21.1080634 1,21.1796875 C1.28649621,21.3229356 1.69442139,21.0020101 1.9609375,21.1796875 C3.80843861,22.4113549 0.874653906,21.0786568 1,22.3007813 C1.0905309,23.1834575 1,24.1158854 1.3203125,24.9433594 C1.39977225,25.1486304 1.82002414,24.6141071 1.9609375,24.7832031 L2.28125,24.8632813 C3.12605346,25.8770454 1.14813496,24.6550399 1.56054687,26.3046875 C1.7633164,27.1157656 2.00947026,27.9163993 2.28125,28.7070313 C2.48245043,29.2923416 3.01887276,28.1929167 3.32226562,28.546875 C4.20416194,29.575754 2.34978756,28.9762876 2.6015625,29.5078125 C3.06670419,30.4897783 3.56773256,31.4566873 4.12304687,32.390625 C4.40290334,32.8612927 4.75490342,31.536652 5.32421875,32.390625 C5.58174153,32.7769092 4.49521653,32.7322813 4.60351562,33.1113281 C4.71910893,33.5159047 5.85227455,34.7723744 6.125,35.1132813 C6.31365386,35.3490986 6.46363148,35.7539063 6.765625,35.7539063 C7.08704777,35.7539063 7.16813581,35.1587373 7.48632812,35.1132813 C7.69270955,35.0837982 7.93040069,35.389901 7.88671875,35.59375 C7.82344232,35.88904 7.0860375,35.978285 7.24609375,36.234375 C7.76781328,37.0691263 8.70990988,37.5536399 9.48828125,38.15625 C9.9821515,38.5386012 9.77298633,37.0783608 10.609375,37.6757813 C10.8271341,37.8313235 10.2353481,38.4521727 10.2089844,38.6367188 C10.2088594,38.6375932 11.5723088,39.4716476 11.6503906,39.5175781 C12.0619588,39.759677 12.4882989,39.9808664 12.9316406,40.1582031 C13.0307749,40.1978568 13.1907241,40.2456732 13.2519531,40.1582031 C13.3011379,40.0879391 13.2530445,39.2076847 13.6523437,39.3574219 C13.820003,39.4202941 14.120055,39.4190512 14.1328125,39.5976563 C14.2561379,41.3242115 11.6319263,39.9294132 15.734375,41.1992188 C16.1796988,41.3370571 16.6582775,41.6806881 17.0957031,41.5195313 C17.3757362,41.4163612 17.0803292,40.8800259 17.2558594,40.6386719 C17.3500587,40.5091477 17.7363281,40.4785156 17.7363281,40.6386719 L17.8964844,40.71875 C17.8964844,40.9130758 17.752466,41.0856423 17.7363281,41.2792969 C17.7250251,41.4149334 17.6831863,41.6518043 17.8164062,41.6796875 C18.9186876,41.9103975 20.0734106,42.2107194 21.1796875,42 C21.4943428,41.9400657 21.0020101,40.7725464 21.1796875,41.0390625 L21.8203125,41.0390625 C21.9979899,41.3055786 21.6770644,41.7135038 21.8203125,42 C21.8919366,42.1432481 22.1414608,42.0163406 22.3007812,42 C23.1834575,41.9094691 24.144642,42.0661636 24.9433594,41.6796875 C25.2119971,41.5497015 24.6497396,41.0657552 24.7832031,40.7988281 C25.2883554,39.7885236 25.6033243,41.6140709 25.6640625,41.5996094 C26.7484693,41.3414173 27.8927467,41.1800279 28.8671875,40.6386719 C28.9772182,40.5775437 28.3905218,40.0184012 28.546875,39.7578125 C28.5788751,39.704479 29.0365835,39.4290302 29.1074219,39.5175781 C29.3025954,39.7615451 29.1155351,40.3864298 29.4277344,40.3984375 C30.0723162,40.4232291 30.6175541,39.8960384 31.1894531,39.5976563 C31.3668964,39.5050771 32.3356076,38.9512699 32.4707031,38.796875 C32.7368961,38.4926545 31.7703402,38.215988 32.0703125,37.9160156 C32.9391495,37.0471787 32.5765815,38.6256615 33.1113281,38.3964844 C33.2816239,38.3235005 35.5131026,36.412959 35.6738281,36.234375 C35.7095411,36.1946939 35.7089827,36.1143954 35.6738281,36.0742188 C35.5117737,35.8890137 34.86966,35.558947 35.1132812,35.59375 L35.5136719,35.1132813 C35.8318642,35.1587373 35.9242779,35.8384782 36.234375,35.7539063 C36.4877998,35.6847904 37.9347046,33.8378072 38.15625,33.4316406 C38.4201904,32.9477499 36.6608359,32.9949366 37.7558594,32.3105469 C38.012932,32.1498765 38.4650526,33.0329088 38.6367187,32.7910156 C39.2039058,31.9917974 40.771108,30.9214986 40.078125,30.2285156 L40.1582031,29.828125 C39.8276145,29.4975363 38.8983594,29.7497656 39.5175781,29.0273438 C41.2139826,27.0482052 37.2567412,32.8920744 40.4785156,29.2675781 C40.5854402,29.147288 41.6032058,26.2111034 41.5195312,25.9042969 C40.9436364,23.7926823 40.4435636,26.9046158 40.6386719,25.34375 C40.7261986,24.643536 41.5772831,25.672859 41.6796875,25.1835938 C41.9103975,24.0813124 42.1851406,22.9311564 42,21.8203125 C41.9517292,21.5306877 40.8816797,21.9930114 41.1191406,21.8203125 L41.0390625,21.1796875 C41.2981108,20.9912888 41.7135038,21.3229356 42,21.1796875 C42.1432481,21.1080634 42.0163406,20.8585392 42,20.6992188 C41.9094691,19.8165425 42,18.8841146 41.6796875,18.0566406 C41.5852321,17.8126309 40.7833078,18.5731033 40.71875,18.0566406 C40.5931565,17.0518929 40.769755,18.0209371 41.5195312,17.4960938 C41.6507364,17.4042502 41.5583748,17.1709994 41.5195312,17.015625 C41.2900945,16.097878 41.0700826,15.1713003 40.71875,14.2929688 C40.5444382,13.8571892 39.840901,14.9841691 39.5976562,14.1328125 C39.4436493,13.5937883 40.5450943,13.8496633 40.3984375,13.4921875 C39.9860266,12.4869359 39.4322674,11.5433127 38.8769531,10.609375 C38.6129351,10.1653447 38.2557341,11.3559527 37.7558594,10.6894531 C37.4001721,10.2152034 38.1933635,10.2011688 38.3964844,10.0488281 C38.436936,10.0184894 37.7241367,8.92812008 37.5957031,8.76757813 C37.5123291,8.66336061 37.3587646,8.63156127 37.2753906,8.52734375 C37.242041,8.48565674 37.3101334,8.40772073 37.2753906,8.3671875 C37.1397158,8.20890018 36.9305967,8.1250842 36.7949219,7.96679688 C36.7601791,7.92626364 36.8303892,7.84654138 36.7949219,7.80664063 C36.6064104,7.59456519 36.4374917,7.22839407 36.1542969,7.24609375 C35.8528915,7.26493159 35.4503954,8.18200874 35.5136719,7.88671875 L35.1132812,7.40625 C35.1765577,7.11096001 35.8454718,7.05340241 35.7539062,6.765625 C35.6200376,6.34489492 33.9385254,5.1816732 33.4316406,4.84375 C33.1708717,4.66990403 32.7642554,6.26498475 32.3105469,5.24414063 C32.2267327,5.05555864 32.9582068,4.5304724 32.7910156,4.36328125 C32.5155867,4.08785233 30.2956377,2.937493 30.0683594,2.84179688 C29.4873826,2.59717508 29.8496463,3.8577167 29.3476562,3.64257813 C27.5829082,2.88625752 31.0950244,4.26190938 29.2675781,2.52148438 C28.7539884,2.03235135 27.9416971,2.01514556 27.265625,1.80078125 C26.8459867,1.66772521 26.3974594,1.32827977 25.984375,1.48046875 C25.9542751,1.49155819 25.8575076,3.16090734 25.1035156,2.28125 C24.9936493,2.15307267 25.2496522,1.96901762 25.2636719,1.80078125 C25.3904025,0.280013182 22.626666,0.846408856 21.8203125,1 C21.5056572,1.05993435 21.9979899,1.69442139 21.8203125,1.9609375 C21.7018609,2.13861491 21.2981391,2.13861491 21.1796875,1.9609375 C21.0020101,1.69442139 21.4835626,1.10129171 21.1796875,1 C20.4183134,0.746208626 19.5757143,1.07827209 18.7773437,1.16015625 C18.5325334,1.185265 18.2077281,1.12605717 18.0566406,1.3203125 C17.9406576,1.46943351 18.4745055,2.07013331 18.1367187,2.28125 C17.0402579,2.96653804 18.0043159,1.21658656 17.3359375,1.40039063 C16.3177697,1.68038678 15.2785497,1.9021804 14.2929687,2.28125 C13.7446849,2.4921284 15.0892921,3.18324337 14.2128906,3.40234375 C13.4676215,3.58866102 14.302374,2.99980341 13.5722656,2.6015625 C13.5083096,2.5666774 13.1861649,2.70784637 12.7714844,2.921875 C12.0065473,3.31668124 11.2533951,3.73763331 10.5292969,4.203125 C10.4843902,4.23199357 10.499684,4.3188619 10.5292969,4.36328125 C10.7214666,4.65153576 11.283516,4.85412922 10.8496094,5.1640625 C10.0662132,5.7236312 10.3440435,4.2847555 9.88867187,4.60351563 C9.50609676,4.8713182 7.3046402,6.56071241 7.24609375,6.765625 C7.16312975,7.055999 7.68309377,7.18323217 7.88671875,7.40625 L7.64648437,7.64648438 C9.32639046,9.48638151 10.8954857,11.4958903 12.9316406,12.9316406 C13.0520611,13.0165525 14.0127257,11.9546632 14.2929687,11.7304688 C14.3346558,11.6971191 14.4087056,11.7600817 14.453125,11.7304688 C14.6578881,11.59396 14.8000019,11.3720971 15.0136719,11.25 C15.739188,10.8354194 16.4713212,10.4165702 17.2558594,10.1289063 C18.0824976,9.82580558 18.9462249,9.60903833 19.8183594,9.48828125 C27.6834269,8.3992719 34.6104075,15.2466663 33.5117187,23.1816406 C33.127074,25.9596307 31.7990499,28.2476285 29.9082031,30.2285156 C29.2957988,30.870082 28.4296429,31.352811 27.6660156,31.8300781 C18.7522883,37.4011577 7.23488708,29.030529 9.6484375,18.9375 C10.2212084,16.5422763 11.3553701,14.6512084 12.9316406,12.9316406" id="Shape" fill="#000000"></path>
            <path d="M8.5,8.5 L12.5,12.5" id="Line" stroke="#000000" stroke-linecap="square"></path>
        </g>
    </g>
</svg>